<?xml version="1.0" encoding="utf-8" ?>
<svg xmlns="http://www.w3.org/2000/svg" xmlns:xlink="http://www.w3.org/1999/xlink" width="195" height="195">
	<path fill="white" d="M0 0L195 0L195 195L0 195L0 0Z"/>
	<path fill="#2B3346" d="M174.432 79.264L189.503 79.3158C189.472 84.5877 189.875 126.97 189.346 128.609L188.812 128.779C180.952 128.821 173.091 128.805 165.23 128.731C163.92 123.112 162.055 117.555 160.415 112.019C159.014 107.291 157.857 102.123 155.806 97.6517C156.408 107.946 156.026 118.453 156.019 128.773L141.066 128.754C141.411 123.213 141.102 117.448 141.1 111.887L141.037 79.3179C149.072 79.1617 157.199 79.1426 165.233 79.3566C166.359 84.8306 168.413 90.3894 170.013 95.7606C171.328 100.173 172.549 105.929 174.475 110.015L174.432 79.264Z"/>
	<path fill="#2B3346" d="M3.7823 79.2814C18.5478 79.536 33.331 79.0778 48.0991 79.3679C46.3981 83.9296 45.1776 88.8105 43.7551 93.4757L21.1564 93.5042C21.2012 94.7834 21.1871 96.0703 21.2006 97.3507C28.3157 97.5633 35.4588 97.4386 42.5775 97.4351C40.9003 101.757 39.8142 106.412 38.3356 110.822L35.1081 110.775L21.2118 110.783L21.1847 114.854L37.1609 114.848L32.8579 128.74C23.1908 128.945 13.4855 128.771 3.8144 128.766C3.60759 122.988 3.77248 117.151 3.77103 111.368L3.7823 79.2814Z"/>
	<path fill="#2B3346" d="M72.2418 79.2925L117.952 79.2823C116.671 79.7612 115.382 80.2412 114.14 80.8174C107.805 83.7861 102.931 89.1785 100.615 95.7802C97.844 103.461 98.3169 111.42 101.767 118.789C103.736 122.823 106.72 126.033 110.044 128.975C107.081 128.615 103.983 128.76 100.999 128.759L86.7611 128.765L86.7795 93.4882L72.2742 93.4874L72.2418 79.2925Z"/>
	<path fill="#2B3346" d="M124.299 96.1097C129.742 95.0364 135.021 98.5918 136.073 104.039C137.124 109.487 133.548 114.752 128.096 115.781C122.675 116.805 117.446 113.253 116.401 107.836C115.355 102.42 118.886 97.177 124.299 96.1097Z"/>
	<path fill="#2B3346" d="M55.6287 115.531C60.9208 116.005 66.5105 115.664 71.8294 115.668C72.7897 120.078 74.331 124.475 75.6168 128.805L72.3125 128.777L51.739 128.759C52.8738 124.332 54.7996 120.025 55.6287 115.531Z"/>
	<path fill="#2B3346" d="M63.7035 89.1007C64.6238 89.807 67.8168 102.344 68.4808 104.484L63.6882 104.503L59.1294 104.499L63.7035 89.1007Z"/>
</svg>