<?xml version="1.0" encoding="utf-8" ?>
<svg xmlns="http://www.w3.org/2000/svg" xmlns:xlink="http://www.w3.org/1999/xlink" width="402" height="440">
	<path fill="#002B1A" d="M161.246 382.292C160.745 375.436 161.093 368.394 161.102 361.515L161.109 324.935L161.108 208.137L161.106 96.0191L161.094 60.8805C161.087 54.3044 160.751 47.5679 161.266 41.0202C161.409 39.2064 162.683 37.8011 164.046 36.6722C165.226 35.6943 166.464 35.2456 167.971 35.0785C171.146 34.7264 174.508 34.9316 177.703 34.9362L195.195 34.9653L221.082 34.9545C228.969 34.9521 236.761 34.8873 244.624 35.6126C278.94 38.7778 309.732 56.4388 331.471 82.7992C346.596 101.139 356.58 125.728 359.277 149.293C359.956 155.228 360.063 161.151 360.066 167.117C360.069 171.583 360.08 176.029 359.646 180.479C356.578 215.381 339.683 247.607 312.723 269.984C293.563 285.676 270.26 295.468 245.643 298.171C238.859 298.889 232.22 298.81 225.419 298.833C220.169 298.851 213.325 299.383 208.224 298.827C206.395 298.628 204.473 298.065 203.287 296.578C202.438 295.515 201.676 294.261 201.463 292.905C201.035 290.181 201.216 287.208 201.214 284.451L201.22 270.516C201.226 265.493 200.761 258.114 201.344 253.419C201.642 251.024 203.784 248.191 206.131 247.486C209.806 246.384 217.404 247.219 221.544 247.134C240.414 246.746 257.677 241.277 272.627 229.565C289.258 216.397 300.016 197.194 302.559 176.135C304.932 155.68 299.108 135.118 286.36 118.946C272.893 101.883 253.853 90.5598 232.263 87.5677C229.505 87.1787 226.727 86.9618 223.942 86.9182C221.564 86.8933 219.09 87.1137 216.73 86.8109C216.649 86.8005 216.569 86.7879 216.488 86.7764C216.628 91.6651 216.575 96.5688 216.591 101.46C216.601 104.591 216.819 107.887 216.454 110.995C224.914 110.842 232.709 112.197 240.486 115.599C253.149 121.139 263.858 132.134 268.869 145.054C273.844 157.882 274.218 173.059 268.603 185.769C261.759 201.262 250.989 211.111 235.128 216.99C229.882 218.935 210.304 221.481 205.531 219.108C203.708 218.202 202.114 216.208 201.512 214.293C200.947 212.495 201.084 210.317 201.972 208.645C205.02 202.909 214.333 204.666 219.624 204.476C222.865 204.38 226.08 203.866 229.189 202.947C239.092 199.942 247.41 193.152 252.338 184.052C257.241 175.02 258.72 164.291 255.743 154.376C251.344 139.722 237.516 128.047 222.24 126.395C217.382 125.87 209.554 127.148 205.415 124.75C203.851 123.844 202.082 121.958 201.626 120.178C200.83 117.073 200.988 82.5421 201.344 78.245C201.427 77.2356 201.582 76.3619 202.109 75.4721C203.128 73.7509 204.937 72.3389 206.86 71.8313C209.793 71.0575 213.345 71.5521 216.361 71.5429C231.294 71.4969 245.509 73.3611 259.329 79.2814C262.17 80.4985 264.982 81.7157 267.627 83.3253C278.027 88.4616 287.409 96.5742 295.081 105.191C311.18 123.515 319.508 147.389 318.299 171.75C316.84 196.377 306.236 220.759 287.584 237.262C267.693 254.861 243.038 263.663 216.432 262.031C216.641 266.352 216.575 270.701 216.59 275.028C216.601 277.98 216.792 281.074 216.456 284.005C226.237 283.986 236.051 283.956 245.771 282.734C264.321 280.256 281.968 273.22 297.135 262.256C322.186 244.086 338.872 216.6 343.435 185.992C348.326 153.886 341.149 122.071 321.801 95.8181C304.166 71.9413 277.812 55.9991 248.478 51.4634C244.145 50.8126 239.781 50.3923 235.404 50.204C224.739 49.7528 213.973 50.0502 203.295 50.0478C196.28 50.0462 188.981 49.5994 181.998 50.1005C180.939 50.1765 179.571 50.269 178.723 50.9638C178.109 51.4667 177.628 52.1426 177.247 52.8334C176.426 54.3208 176.172 55.7966 176.091 57.4717C175.598 67.712 176.051 78.4361 176.058 88.7253L176.06 149.36L176.054 336.759L176.068 373.48C176.073 378.953 176.567 386.365 175.898 391.584C175.69 393.212 174.908 394.62 173.575 395.609C172.478 396.423 171.081 396.835 169.733 396.982C167.423 397.234 164.926 397.06 162.6 397.057L149.233 397.061L134.98 397.071C132.181 397.074 129.24 397.266 126.465 396.904C124.468 396.644 122.952 395.577 121.75 393.995C120.702 392.616 120.417 390.587 120.294 388.893C119.984 384.625 120.209 380.22 120.213 375.934L120.232 351.915L120.228 277.574L120.233 117.038L120.225 72.355L120.202 59.071C120.198 56.2396 120.031 53.2734 120.432 50.4688C112.114 50.3405 103.79 50.6324 95.4705 50.4571C95.7661 57.2557 95.5639 64.1455 95.5643 70.9536L95.5655 107.519L95.5644 219.265L95.5584 332.628L95.5502 369.376C95.5502 375.401 95.8078 381.508 95.5563 387.52C95.4505 390.049 95.058 392.73 93.3946 394.747C92.2166 396.175 90.5599 396.978 88.7307 397.161C86.5566 397.378 84.3585 396.798 82.6954 395.341C81.0948 393.94 80.25 391.841 80.1213 389.744C79.7633 383.913 80.0852 377.858 80.0955 372.007L80.1089 338.499L80.1057 232.659L80.1097 105.045L80.098 63.9536C80.0907 56.8898 79.8025 49.7195 80.1125 42.6695C80.1973 40.7415 80.6404 39.0186 82.0046 37.5666C83.9707 35.4741 86.4383 35.2363 89.1428 35.1095C96.1648 34.8013 103.338 35.1263 110.375 35.1175C116.584 35.1097 123.392 34.4912 129.497 35.4288C131.789 35.7808 133.468 37.1165 134.781 38.9725C135.655 40.2082 135.686 42.8142 135.751 44.2991C136.117 52.6872 135.763 61.2324 135.761 69.6371L135.752 120.49L135.753 275.715L135.756 351.748L135.77 371.626C135.777 374.998 136.14 378.844 135.553 382.162C139.891 381.908 144.348 382.106 148.698 382.105C152.831 382.104 157.145 381.845 161.246 382.292Z"/>
</svg>