<?xml version="1.0" encoding="utf-8" ?>
<svg xmlns="http://www.w3.org/2000/svg" xmlns:xlink="http://www.w3.org/1999/xlink" width="225" height="225" viewBox="0 0 225 225">
  <defs>
    <clipPath id="circleClip">
      <circle cx="112.5" cy="112.5" r="112.5"/>
    </clipPath>
  </defs>
  <g clip-path="url(#circleClip)">
    <path fill="white" d="M0 0L225 0L225 225L0 225L0 0Z"/>
    <path fill="#3D405B" d="M81.9624 33.0988C83.2356 33.5795 93.7193 42.6539 95.7963 44.3286C92.0303 47.9969 88.9397 53.739 86.7789 58.4998C89.1497 60.3769 91.3105 62.5009 93.5037 64.5783C94.1837 63.6785 94.8847 62.7948 95.6062 61.9279C108.783 46.1971 126.756 36.6981 147.204 34.8767C147.378 40.6827 148.225 46.6102 148.873 52.3855C143.333 52.5673 137.764 54.3598 132.532 56.0469C132.924 58.9761 132.814 62.1245 132.955 65.0889C156.733 63.0292 173.001 67.5913 192.022 82.036C188.04 86.1932 184.265 91.1679 180.787 95.7709C176.836 92.1609 171.571 88.9412 166.644 86.8715L160.428 93.4968C160.617 93.6229 160.802 93.7542 160.984 93.8904C178.756 107.419 187.38 125.329 190.207 147.096C184.358 147.649 178.513 148.234 172.671 148.852C172.233 143.316 170.69 137.821 169.015 132.55C165.995 132.771 162.95 132.851 159.925 132.997C162.69 156.079 156.865 173.579 143.094 191.891C141.192 191.05 131.847 182.759 129.222 180.744C132.875 177.037 136.178 171.306 138.133 166.498C135.797 164.683 133.655 162.471 131.501 160.442C121.909 173.194 108.513 182.569 93.2472 187.215C88.2066 188.697 83.1108 189.475 77.9338 190.292C77.3474 184.402 76.837 178.488 76.0866 172.616C81.7748 172.37 87.1325 170.585 92.5317 168.974C92.0965 166.052 92.1539 162.905 92.0011 159.946C74.6874 161.492 58.4886 159.189 43.3687 150.187C39.7354 148.024 36.3854 145.473 32.9562 143.009C36.9584 138.707 40.6575 133.843 44.2657 129.196C47.9547 133.028 53.5155 135.747 58.1818 138.218C60.3752 136.043 62.4617 133.741 64.5829 131.494C64.4962 131.432 64.4103 131.368 64.3252 131.304C50.8336 121.121 41.1948 106.663 36.9838 90.2928C35.9336 86.1785 35.3521 82.0406 34.7878 77.8356C40.6618 77.4278 46.535 76.738 52.3964 76.1692C52.737 81.819 54.4088 87.0545 55.987 92.4415C59.0278 92.3393 62.0675 92.2055 65.1056 92.0403C62.3544 69.374 68.2093 51.0215 81.9624 33.0988Z"/>
    <path fill="white" d="M115.145 66.9574C115.827 67.6959 116.115 83.7483 116.208 86.1455C122.864 84.4841 130.003 83.0313 136.835 82.4187C140.22 82.1151 143.668 82.1174 147.066 82.0295C142.563 86.7844 138.201 91.6808 133.726 96.465C141.807 101.185 152.199 108.415 158.231 115.506C151.8 115.565 145.355 115.95 138.929 116.21C141.245 127.578 142.785 135.234 142.909 146.993L128.41 133.634C125.412 139.964 115.285 153.823 109.494 158.171C109.405 151.79 108.787 145.38 108.887 139.007C103.315 139.821 97.8435 141.284 92.2588 142.062C87.4435 142.733 82.6574 142.706 77.8234 143.063C82.4568 138.366 86.7999 133.331 91.3365 128.531C82.5973 123.54 73.485 116.919 66.6546 109.5C73.0913 109.642 79.6491 108.999 86.0931 108.802C84.8629 102.63 83.3666 96.3946 82.6261 90.1436C82.1502 86.1258 82.1074 82.032 82.0171 77.9911C87.0226 82.1639 91.7365 86.8908 96.524 91.3248C101.663 82.5659 107.735 73.9345 115.145 66.9574Z"/>
  </g>
</svg>